<?xml version="1.0" encoding="us-ascii" standalone="no"?><svg xmlns="http://www.w3.org/2000/svg" xmlns:xlink="http://www.w3.org/1999/xlink" contentStyleType="text/css" height="776px" preserveAspectRatio="none" style="width:691px;height:776px;background:#FFFFFF;" version="1.1" viewBox="0 0 691 776" width="691px" zoomAndPan="magnify"><defs/><g><text fill="#000000" font-family="sans-serif" font-size="14" font-weight="bold" lengthAdjust="spacing" textLength="317" x="188.5" y="27.9951">Login Flow (Authorization Code + PKCE)</text><rect fill="none" height="130.5313" style="stroke:#000000;stroke-width:1.5;" width="424" x="10" y="135.5938"/><rect fill="none" height="75.3984" style="stroke:#000000;stroke-width:1.5;" width="675" x="10" y="280.125"/><rect fill="none" height="75.3984" style="stroke:#000000;stroke-width:1.5;" width="675" x="10" y="369.5234"/><rect fill="none" height="117.5313" style="stroke:#000000;stroke-width:1.5;" width="453.5" x="231.5" y="458.9219"/><rect fill="none" height="88.3984" style="stroke:#000000;stroke-width:1.5;" width="526" x="10" y="590.4531"/><line style="stroke:#181818;stroke-width:0.5;stroke-dasharray:5.0,5.0;" x1="39" x2="39" y1="118.5938" y2="695.8516"/><line style="stroke:#181818;stroke-width:0.5;stroke-dasharray:5.0,5.0;" x1="254.5" x2="254.5" y1="118.5938" y2="695.8516"/><line style="stroke:#181818;stroke-width:0.5;stroke-dasharray:5.0,5.0;" x1="620" x2="620" y1="118.5938" y2="695.8516"/><text fill="#000000" font-family="sans-serif" font-size="14" lengthAdjust="spacing" textLength="32" x="20" y="115.292">User</text><ellipse cx="39" cy="50.7969" fill="#E2E2F0" rx="8" ry="8" style="stroke:#181818;stroke-width:0.5;"/><path d="M39,58.7969 L39,85.7969 M26,66.7969 L52,66.7969 M39,85.7969 L26,100.7969 M39,85.7969 L52,100.7969 " fill="none" style="stroke:#181818;stroke-width:0.5;"/><text fill="#000000" font-family="sans-serif" font-size="14" lengthAdjust="spacing" textLength="32" x="20" y="707.8467">User</text><ellipse cx="39" cy="719.6484" fill="#E2E2F0" rx="8" ry="8" style="stroke:#181818;stroke-width:0.5;"/><path d="M39,727.6484 L39,754.6484 M26,735.6484 L52,735.6484 M39,754.6484 L26,769.6484 M39,754.6484 L52,769.6484 " fill="none" style="stroke:#181818;stroke-width:0.5;"/><rect fill="#E2E2F0" height="30.2969" rx="2.5" ry="2.5" style="stroke:#181818;stroke-width:0.5;" width="27" x="241.5" y="87.2969"/><text fill="#000000" font-family="sans-serif" font-size="14" lengthAdjust="spacing" textLength="13" x="248.5" y="107.292">UI</text><rect fill="#E2E2F0" height="30.2969" rx="2.5" ry="2.5" style="stroke:#181818;stroke-width:0.5;" width="27" x="241.5" y="694.8516"/><text fill="#000000" font-family="sans-serif" font-size="14" lengthAdjust="spacing" textLength="13" x="248.5" y="714.8467">UI</text><rect fill="#E2E2F0" height="30.2969" rx="2.5" ry="2.5" style="stroke:#181818;stroke-width:0.5;" width="110" x="565" y="87.2969"/><text fill="#000000" font-family="sans-serif" font-size="14" lengthAdjust="spacing" textLength="96" x="572" y="107.292">Keycloak (IdP)</text><rect fill="#E2E2F0" height="30.2969" rx="2.5" ry="2.5" style="stroke:#181818;stroke-width:0.5;" width="110" x="565" y="694.8516"/><text fill="#000000" font-family="sans-serif" font-size="14" lengthAdjust="spacing" textLength="96" x="572" y="714.8467">Keycloak (IdP)</text><path d="M10,135.5938 L217,135.5938 L217,142.7266 L207,152.7266 L10,152.7266 L10,135.5938 " fill="#EEEEEE" style="stroke:#000000;stroke-width:1.5;"/><rect fill="none" height="130.5313" style="stroke:#000000;stroke-width:1.5;" width="424" x="10" y="135.5938"/><text fill="#000000" font-family="sans-serif" font-size="13" font-weight="bold" lengthAdjust="spacing" textLength="162" x="25" y="148.6606">1. Initial login request</text><polygon fill="#181818" points="243,169.8594,253,173.8594,243,177.8594,247,173.8594" style="stroke:#181818;stroke-width:1.0;"/><line style="stroke:#181818;stroke-width:1.0;" x1="39" x2="249" y1="173.8594" y2="173.8594"/><text fill="#000000" font-family="sans-serif" font-size="13" font-weight="bold" lengthAdjust="spacing" textLength="9" x="46" y="168.7935">1</text><text fill="#000000" font-family="sans-serif" font-size="13" lengthAdjust="spacing" textLength="130" x="59" y="168.7935">Clicks "Login" button</text><line style="stroke:#181818;stroke-width:1.0;" x1="255" x2="297" y1="202.9922" y2="202.9922"/><line style="stroke:#181818;stroke-width:1.0;" x1="297" x2="297" y1="202.9922" y2="215.9922"/><line style="stroke:#181818;stroke-width:1.0;" x1="256" x2="297" y1="215.9922" y2="215.9922"/><polygon fill="#181818" points="266,211.9922,256,215.9922,266,219.9922,262,215.9922" style="stroke:#181818;stroke-width:1.0;"/><text fill="#000000" font-family="sans-serif" font-size="13" font-weight="bold" lengthAdjust="spacing" textLength="9" x="262" y="197.9263">2</text><text fill="#000000" font-family="sans-serif" font-size="13" lengthAdjust="spacing" textLength="146" x="275" y="197.9263">Generate Code Verifier</text><line style="stroke:#181818;stroke-width:1.0;" x1="255" x2="297" y1="245.125" y2="245.125"/><line style="stroke:#181818;stroke-width:1.0;" x1="297" x2="297" y1="245.125" y2="258.125"/><line style="stroke:#181818;stroke-width:1.0;" x1="256" x2="297" y1="258.125" y2="258.125"/><polygon fill="#181818" points="266,254.125,256,258.125,266,262.125,262,258.125" style="stroke:#181818;stroke-width:1.0;"/><text fill="#000000" font-family="sans-serif" font-size="13" font-weight="bold" lengthAdjust="spacing" textLength="9" x="262" y="240.0591">3</text><text fill="#000000" font-family="sans-serif" font-size="13" lengthAdjust="spacing" textLength="147" x="275" y="240.0591">Create Code Challenge</text><path d="M10,280.125 L227,280.125 L227,287.2578 L217,297.2578 L10,297.2578 L10,280.125 " fill="#EEEEEE" style="stroke:#000000;stroke-width:1.5;"/><rect fill="none" height="75.3984" style="stroke:#000000;stroke-width:1.5;" width="675" x="10" y="280.125"/><text fill="#000000" font-family="sans-serif" font-size="13" font-weight="bold" lengthAdjust="spacing" textLength="172" x="25" y="293.1919">2. Redirect to Keycloak</text><polygon fill="#FF0000" points="608,314.3906,618,318.3906,608,322.3906,612,318.3906" style="stroke:#FF0000;stroke-width:1.0;"/><line style="stroke:#FF0000;stroke-width:1.0;" x1="255" x2="614" y1="318.3906" y2="318.3906"/><text fill="#000000" font-family="sans-serif" font-size="13" font-weight="bold" lengthAdjust="spacing" textLength="9" x="262" y="313.3247">1</text><text fill="#000000" font-family="sans-serif" font-size="13" lengthAdjust="spacing" textLength="69" x="275" y="313.3247">Redirect to</text><text fill="#000000" font-family="sans-serif" font-size="13" font-weight="bold" lengthAdjust="spacing" textLength="38" x="348" y="313.3247">/auth</text><polygon fill="#181818" points="50,343.5234,40,347.5234,50,351.5234,46,347.5234" style="stroke:#181818;stroke-width:1.0;"/><line style="stroke:#181818;stroke-width:1.0;" x1="44" x2="619" y1="347.5234" y2="347.5234"/><text fill="#000000" font-family="sans-serif" font-size="13" font-weight="bold" lengthAdjust="spacing" textLength="9" x="56" y="342.4575">2</text><text fill="#000000" font-family="sans-serif" font-size="13" lengthAdjust="spacing" textLength="104" x="69" y="342.4575">Show login page</text><path d="M10,369.5234 L218,369.5234 L218,376.6563 L208,386.6563 L10,386.6563 L10,369.5234 " fill="#EEEEEE" style="stroke:#000000;stroke-width:1.5;"/><rect fill="none" height="75.3984" style="stroke:#000000;stroke-width:1.5;" width="675" x="10" y="369.5234"/><text fill="#000000" font-family="sans-serif" font-size="13" font-weight="bold" lengthAdjust="spacing" textLength="163" x="25" y="382.5903">3. User authentication</text><polygon fill="#181818" points="608,403.7891,618,407.7891,608,411.7891,612,407.7891" style="stroke:#181818;stroke-width:1.0;"/><line style="stroke:#181818;stroke-width:1.0;" x1="39" x2="614" y1="407.7891" y2="407.7891"/><text fill="#000000" font-family="sans-serif" font-size="13" font-weight="bold" lengthAdjust="spacing" textLength="9" x="46" y="402.7231">1</text><text fill="#000000" font-family="sans-serif" font-size="13" lengthAdjust="spacing" textLength="120" x="59" y="402.7231">Submit credentials</text><polygon fill="#FF0000" points="266,432.9219,256,436.9219,266,440.9219,262,436.9219" style="stroke:#FF0000;stroke-width:1.0;"/><line style="stroke:#FF0000;stroke-width:1.0;" x1="260" x2="619" y1="436.9219" y2="436.9219"/><text fill="#000000" font-family="sans-serif" font-size="13" font-weight="bold" lengthAdjust="spacing" textLength="9" x="272" y="431.856">2</text><text fill="#000000" font-family="sans-serif" font-size="13" lengthAdjust="spacing" textLength="207" x="285" y="431.856">Redirect with Authorization Code</text><path d="M231.5,458.9219 L510.5,458.9219 L510.5,466.0547 L500.5,476.0547 L231.5,476.0547 L231.5,458.9219 " fill="#EEEEEE" style="stroke:#000000;stroke-width:1.5;"/><rect fill="none" height="117.5313" style="stroke:#000000;stroke-width:1.5;" width="453.5" x="231.5" y="458.9219"/><text fill="#000000" font-family="sans-serif" font-size="13" font-weight="bold" lengthAdjust="spacing" textLength="234" x="246.5" y="471.9888">4. Authorization code exchange</text><line style="stroke:#181818;stroke-width:1.0;" x1="255" x2="297" y1="497.1875" y2="497.1875"/><line style="stroke:#181818;stroke-width:1.0;" x1="297" x2="297" y1="497.1875" y2="510.1875"/><line style="stroke:#181818;stroke-width:1.0;" x1="256" x2="297" y1="510.1875" y2="510.1875"/><polygon fill="#181818" points="266,506.1875,256,510.1875,266,514.1875,262,510.1875" style="stroke:#181818;stroke-width:1.0;"/><text fill="#000000" font-family="sans-serif" font-size="13" font-weight="bold" lengthAdjust="spacing" textLength="9" x="262" y="492.1216">1</text><text fill="#000000" font-family="sans-serif" font-size="13" lengthAdjust="spacing" textLength="171" x="275" y="492.1216">Extract Authorization Code</text><polygon fill="#FF0000" points="608,535.3203,618,539.3203,608,543.3203,612,539.3203" style="stroke:#FF0000;stroke-width:1.0;"/><line style="stroke:#FF0000;stroke-width:1.0;" x1="255" x2="614" y1="539.3203" y2="539.3203"/><text fill="#000000" font-family="sans-serif" font-size="13" font-weight="bold" lengthAdjust="spacing" textLength="9" x="262" y="534.2544">2</text><text fill="#000000" font-family="sans-serif" font-size="13" lengthAdjust="spacing" textLength="277" x="275" y="534.2544">Send Authorization Code + Code Verifier to</text><text fill="#000000" font-family="sans-serif" font-size="13" font-weight="bold" lengthAdjust="spacing" textLength="47" x="556" y="534.2544">/token</text><polygon fill="#181818" points="266,564.4531,256,568.4531,266,572.4531,262,568.4531" style="stroke:#181818;stroke-width:1.0;"/><line style="stroke:#181818;stroke-width:1.0;" x1="260" x2="619" y1="568.4531" y2="568.4531"/><text fill="#000000" font-family="sans-serif" font-size="13" font-weight="bold" lengthAdjust="spacing" textLength="9" x="272" y="563.3872">3</text><text fill="#000000" font-family="sans-serif" font-size="13" lengthAdjust="spacing" textLength="227" x="285" y="563.3872">Return Tokens (Access, ID, Refresh)</text><path d="M10,590.4531 L276,590.4531 L276,597.5859 L266,607.5859 L10,607.5859 L10,590.4531 " fill="#EEEEEE" style="stroke:#000000;stroke-width:1.5;"/><rect fill="none" height="88.3984" style="stroke:#000000;stroke-width:1.5;" width="526" x="10" y="590.4531"/><text fill="#000000" font-family="sans-serif" font-size="13" font-weight="bold" lengthAdjust="spacing" textLength="221" x="25" y="603.52">5. Token storage and redirect</text><line style="stroke:#181818;stroke-width:1.0;" x1="255" x2="297" y1="628.7188" y2="628.7188"/><line style="stroke:#181818;stroke-width:1.0;" x1="297" x2="297" y1="628.7188" y2="641.7188"/><line style="stroke:#181818;stroke-width:1.0;" x1="256" x2="297" y1="641.7188" y2="641.7188"/><polygon fill="#181818" points="266,637.7188,256,641.7188,266,645.7188,262,641.7188" style="stroke:#181818;stroke-width:1.0;"/><text fill="#000000" font-family="sans-serif" font-size="13" font-weight="bold" lengthAdjust="spacing" textLength="9" x="262" y="623.6528">1</text><text fill="#000000" font-family="sans-serif" font-size="13" lengthAdjust="spacing" textLength="249" x="275" y="623.6528">Tokens stored in secure session/cookie</text><polygon fill="#181818" points="50,666.8516,40,670.8516,50,674.8516,46,670.8516" style="stroke:#181818;stroke-width:1.0;"/><line style="stroke:#181818;stroke-width:1.0;" x1="44" x2="254" y1="670.8516" y2="670.8516"/><text fill="#000000" font-family="sans-serif" font-size="13" font-weight="bold" lengthAdjust="spacing" textLength="9" x="56" y="665.7856">2</text><text fill="#000000" font-family="sans-serif" font-size="13" lengthAdjust="spacing" textLength="179" x="69" y="665.7856">Redirected to app, logged in</text><!--SRC=[ZLDDRzim3BthLn3PfV4oj_kwv51WyBh1o0x5ikuoxA38R2nOaJoAHhlz-b5s7C1PijONGH0VttjyD5js25_2rdhuvC83N7pek0va_sYsmKCHAeINSBigRkPAnSRwLfFU0MdVH6pXzTMLKjfm8BYBI4fUsHhRQizmLqwkinN-DYxe1YxAwdO-0nrXLIYrfT19ennARzbg1wvNG_YhmyWAvDCT1z_jDaBGtnCLlBeMXYKKpfecmgptC8DDnr8xL9LZpMVqI9fniFCToTvRwJKjAWWF9KMjdKE_HNN43v53gz1Ne-utENp5oX8Q1WumUZmfU-JxyOAm-dajxfSJS9PT2gJECZYKhufUdlXTmhgMV8RXjFePqjxcmw1IJ_IIGn_fUMNxeIPLwswpimn6T2QaTd6YQ3IGndOmy62vXd-tvqcPx_8Zb4a9uAEfTGhWVuCS5DmyCiaAdk8-D_MryCF9JPzio3uK3WtwB3iEfJVF7NdubWgY_3l6O8mBA3ykvEcUCDRp9_s_pmTyUY395RHee_rKds5_JvxGM84iHqJJ4SeHenYxD24q5e-1_KQDsGbEdEgsNQJzsWvj0CvB_mi0]--></g></svg>