<?xml version="1.0" encoding="us-ascii" standalone="no"?><svg xmlns="http://www.w3.org/2000/svg" xmlns:xlink="http://www.w3.org/1999/xlink" contentStyleType="text/css" height="1235px" preserveAspectRatio="none" style="width:1244px;height:1235px;background:#FFFFFF;" version="1.1" viewBox="0 0 1244 1235" width="1244px" zoomAndPan="magnify"><defs/><g><text fill="#000000" font-family="sans-serif" font-size="14" font-weight="bold" lengthAdjust="spacing" textLength="317" x="465.25" y="27.9951">Login Flow (Authorization Code + PKCE)</text><rect fill="none" height="130.5313" style="stroke:#000000;stroke-width:1.5;" width="430" x="236" y="216.125"/><rect fill="none" height="75.3984" style="stroke:#000000;stroke-width:1.5;" width="681" x="236" y="360.6563"/><rect fill="none" height="75.3984" style="stroke:#000000;stroke-width:1.5;" width="681" x="236" y="450.0547"/><rect fill="none" height="117.5313" style="stroke:#000000;stroke-width:1.5;" width="467.5" x="449.5" y="539.4531"/><rect fill="none" height="130.5313" style="stroke:#000000;stroke-width:1.5;" width="532" x="236" y="670.9844"/><rect fill="none" height="322.1328" style="stroke:#000000;stroke-width:1.5;" width="1002.5" x="236" y="815.5156"/><rect fill="none" height="148.4688" style="stroke:#000000;stroke-width:1.5;" width="618.5" x="449.5" y="910.9141"/><line style="stroke:#181818;stroke-width:0.5;stroke-dasharray:5.0,5.0;" x1="265" x2="265" y1="118.5938" y2="1154.6484"/><line style="stroke:#181818;stroke-width:0.5;stroke-dasharray:5.0,5.0;" x1="472.5" x2="472.5" y1="118.5938" y2="1154.6484"/><line style="stroke:#181818;stroke-width:0.5;stroke-dasharray:5.0,5.0;" x1="852" x2="852" y1="118.5938" y2="1154.6484"/><line style="stroke:#181818;stroke-width:0.5;stroke-dasharray:5.0,5.0;" x1="987" x2="987" y1="118.5938" y2="1154.6484"/><text fill="#000000" font-family="sans-serif" font-size="14" lengthAdjust="spacing" textLength="32" x="246" y="115.292">User</text><ellipse cx="265" cy="50.7969" fill="#E2E2F0" rx="8" ry="8" style="stroke:#181818;stroke-width:0.5;"/><path d="M265,58.7969 L265,85.7969 M252,66.7969 L278,66.7969 M265,85.7969 L252,100.7969 M265,85.7969 L278,100.7969 " fill="none" style="stroke:#181818;stroke-width:0.5;"/><text fill="#000000" font-family="sans-serif" font-size="14" lengthAdjust="spacing" textLength="32" x="246" y="1166.6436">User</text><ellipse cx="265" cy="1178.4453" fill="#E2E2F0" rx="8" ry="8" style="stroke:#181818;stroke-width:0.5;"/><path d="M265,1186.4453 L265,1213.4453 M252,1194.4453 L278,1194.4453 M265,1213.4453 L252,1228.4453 M265,1213.4453 L278,1228.4453 " fill="none" style="stroke:#181818;stroke-width:0.5;"/><rect fill="#E2E2F0" height="30.2969" rx="2.5" ry="2.5" style="stroke:#181818;stroke-width:0.5;" width="27" x="459.5" y="87.2969"/><text fill="#000000" font-family="sans-serif" font-size="14" lengthAdjust="spacing" textLength="13" x="466.5" y="107.292">UI</text><rect fill="#E2E2F0" height="30.2969" rx="2.5" ry="2.5" style="stroke:#181818;stroke-width:0.5;" width="27" x="459.5" y="1153.6484"/><text fill="#000000" font-family="sans-serif" font-size="14" lengthAdjust="spacing" textLength="13" x="466.5" y="1173.6436">UI</text><rect fill="#E2E2F0" height="30.2969" rx="2.5" ry="2.5" style="stroke:#181818;stroke-width:0.5;" width="110" x="797" y="87.2969"/><text fill="#000000" font-family="sans-serif" font-size="14" lengthAdjust="spacing" textLength="96" x="804" y="107.292">Keycloak (IdP)</text><rect fill="#E2E2F0" height="30.2969" rx="2.5" ry="2.5" style="stroke:#181818;stroke-width:0.5;" width="110" x="797" y="1153.6484"/><text fill="#000000" font-family="sans-serif" font-size="14" lengthAdjust="spacing" textLength="96" x="804" y="1173.6436">Keycloak (IdP)</text><rect fill="#E2E2F0" height="30.2969" rx="2.5" ry="2.5" style="stroke:#181818;stroke-width:0.5;" width="141" x="917" y="87.2969"/><text fill="#000000" font-family="sans-serif" font-size="14" lengthAdjust="spacing" textLength="127" x="924" y="107.292">User Management</text><rect fill="#E2E2F0" height="30.2969" rx="2.5" ry="2.5" style="stroke:#181818;stroke-width:0.5;" width="141" x="917" y="1153.6484"/><text fill="#000000" font-family="sans-serif" font-size="14" lengthAdjust="spacing" textLength="127" x="924" y="1173.6436">User Management</text><path d="M5,133.5938 L5,203.5938 L260,203.5938 L260,143.5938 L250,133.5938 L5,133.5938 " fill="#FEFFDD" style="stroke:#181818;stroke-width:0.5;"/><path d="M250,133.5938 L250,143.5938 L260,143.5938 L250,133.5938 " fill="#FEFFDD" style="stroke:#181818;stroke-width:0.5;"/><text fill="#000000" font-family="sans-serif" font-size="13" lengthAdjust="spacing" textLength="234" x="11" y="150.6606">Details to every step can be found in</text><text fill="#0000FF" font-family="sans-serif" font-size="13" lengthAdjust="spacing" text-decoration="underline" textLength="211" x="11" y="165.7935">authentication_with_keycloak.md</text><text fill="#000000" font-family="sans-serif" font-size="13" lengthAdjust="spacing" textLength="223" x="11" y="180.9263">Red arrows indicate a http request,</text><text fill="#000000" font-family="sans-serif" font-size="13" lengthAdjust="spacing" textLength="227" x="11" y="196.0591">which is documented more detailed</text><path d="M236,216.125 L443,216.125 L443,223.2578 L433,233.2578 L236,233.2578 L236,216.125 " fill="#EEEEEE" style="stroke:#000000;stroke-width:1.5;"/><rect fill="none" height="130.5313" style="stroke:#000000;stroke-width:1.5;" width="430" x="236" y="216.125"/><text fill="#000000" font-family="sans-serif" font-size="13" font-weight="bold" lengthAdjust="spacing" textLength="162" x="251" y="229.1919">1. Initial login request</text><polygon fill="#181818" points="461,250.3906,471,254.3906,461,258.3906,465,254.3906" style="stroke:#181818;stroke-width:1.0;"/><line style="stroke:#181818;stroke-width:1.0;" x1="265" x2="467" y1="254.3906" y2="254.3906"/><text fill="#000000" font-family="sans-serif" font-size="13" font-weight="bold" lengthAdjust="spacing" textLength="23" x="272" y="249.3247">1.1</text><text fill="#000000" font-family="sans-serif" font-size="13" lengthAdjust="spacing" textLength="130" x="299" y="249.3247">Clicks "Login" button</text><line style="stroke:#181818;stroke-width:1.0;" x1="473" x2="515" y1="283.5234" y2="283.5234"/><line style="stroke:#181818;stroke-width:1.0;" x1="515" x2="515" y1="283.5234" y2="296.5234"/><line style="stroke:#181818;stroke-width:1.0;" x1="474" x2="515" y1="296.5234" y2="296.5234"/><polygon fill="#181818" points="484,292.5234,474,296.5234,484,300.5234,480,296.5234" style="stroke:#181818;stroke-width:1.0;"/><text fill="#000000" font-family="sans-serif" font-size="13" font-weight="bold" lengthAdjust="spacing" textLength="23" x="480" y="278.4575">1.2</text><text fill="#000000" font-family="sans-serif" font-size="13" lengthAdjust="spacing" textLength="146" x="507" y="278.4575">Generate Code Verifier</text><line style="stroke:#181818;stroke-width:1.0;" x1="473" x2="515" y1="325.6563" y2="325.6563"/><line style="stroke:#181818;stroke-width:1.0;" x1="515" x2="515" y1="325.6563" y2="338.6563"/><line style="stroke:#181818;stroke-width:1.0;" x1="474" x2="515" y1="338.6563" y2="338.6563"/><polygon fill="#181818" points="484,334.6563,474,338.6563,484,342.6563,480,338.6563" style="stroke:#181818;stroke-width:1.0;"/><text fill="#000000" font-family="sans-serif" font-size="13" font-weight="bold" lengthAdjust="spacing" textLength="23" x="480" y="320.5903">1.3</text><text fill="#000000" font-family="sans-serif" font-size="13" lengthAdjust="spacing" textLength="147" x="507" y="320.5903">Create Code Challenge</text><path d="M236,360.6563 L453,360.6563 L453,367.7891 L443,377.7891 L236,377.7891 L236,360.6563 " fill="#EEEEEE" style="stroke:#000000;stroke-width:1.5;"/><rect fill="none" height="75.3984" style="stroke:#000000;stroke-width:1.5;" width="681" x="236" y="360.6563"/><text fill="#000000" font-family="sans-serif" font-size="13" font-weight="bold" lengthAdjust="spacing" textLength="172" x="251" y="373.7231">2. Redirect to Keycloak</text><polygon fill="#FF0000" points="840,394.9219,850,398.9219,840,402.9219,844,398.9219" style="stroke:#FF0000;stroke-width:1.0;"/><line style="stroke:#FF0000;stroke-width:1.0;" x1="473" x2="846" y1="398.9219" y2="398.9219"/><text fill="#000000" font-family="sans-serif" font-size="13" font-weight="bold" lengthAdjust="spacing" textLength="23" x="480" y="393.856">2.1</text><text fill="#000000" font-family="sans-serif" font-size="13" lengthAdjust="spacing" textLength="69" x="507" y="393.856">Redirect to</text><text fill="#000000" font-family="sans-serif" font-size="13" font-weight="bold" lengthAdjust="spacing" textLength="38" x="580" y="393.856">/auth</text><polygon fill="#181818" points="276,424.0547,266,428.0547,276,432.0547,272,428.0547" style="stroke:#181818;stroke-width:1.0;"/><line style="stroke:#181818;stroke-width:1.0;" x1="270" x2="851" y1="428.0547" y2="428.0547"/><text fill="#000000" font-family="sans-serif" font-size="13" font-weight="bold" lengthAdjust="spacing" textLength="23" x="282" y="422.9888">2.2</text><text fill="#000000" font-family="sans-serif" font-size="13" lengthAdjust="spacing" textLength="104" x="309" y="422.9888">Show login page</text><path d="M236,450.0547 L444,450.0547 L444,457.1875 L434,467.1875 L236,467.1875 L236,450.0547 " fill="#EEEEEE" style="stroke:#000000;stroke-width:1.5;"/><rect fill="none" height="75.3984" style="stroke:#000000;stroke-width:1.5;" width="681" x="236" y="450.0547"/><text fill="#000000" font-family="sans-serif" font-size="13" font-weight="bold" lengthAdjust="spacing" textLength="163" x="251" y="463.1216">3. User authentication</text><polygon fill="#181818" points="840,484.3203,850,488.3203,840,492.3203,844,488.3203" style="stroke:#181818;stroke-width:1.0;"/><line style="stroke:#181818;stroke-width:1.0;" x1="265" x2="846" y1="488.3203" y2="488.3203"/><text fill="#000000" font-family="sans-serif" font-size="13" font-weight="bold" lengthAdjust="spacing" textLength="23" x="272" y="483.2544">3.1</text><text fill="#000000" font-family="sans-serif" font-size="13" lengthAdjust="spacing" textLength="120" x="299" y="483.2544">Submit credentials</text><polygon fill="#FF0000" points="484,513.4531,474,517.4531,484,521.4531,480,517.4531" style="stroke:#FF0000;stroke-width:1.0;"/><line style="stroke:#FF0000;stroke-width:1.0;" x1="478" x2="851" y1="517.4531" y2="517.4531"/><text fill="#000000" font-family="sans-serif" font-size="13" font-weight="bold" lengthAdjust="spacing" textLength="23" x="490" y="512.3872">3.2</text><text fill="#000000" font-family="sans-serif" font-size="13" lengthAdjust="spacing" textLength="207" x="517" y="512.3872">Redirect with Authorization Code</text><path d="M449.5,539.4531 L728.5,539.4531 L728.5,546.5859 L718.5,556.5859 L449.5,556.5859 L449.5,539.4531 " fill="#EEEEEE" style="stroke:#000000;stroke-width:1.5;"/><rect fill="none" height="117.5313" style="stroke:#000000;stroke-width:1.5;" width="467.5" x="449.5" y="539.4531"/><text fill="#000000" font-family="sans-serif" font-size="13" font-weight="bold" lengthAdjust="spacing" textLength="234" x="464.5" y="552.52">4. Authorization code exchange</text><line style="stroke:#181818;stroke-width:1.0;" x1="473" x2="515" y1="577.7188" y2="577.7188"/><line style="stroke:#181818;stroke-width:1.0;" x1="515" x2="515" y1="577.7188" y2="590.7188"/><line style="stroke:#181818;stroke-width:1.0;" x1="474" x2="515" y1="590.7188" y2="590.7188"/><polygon fill="#181818" points="484,586.7188,474,590.7188,484,594.7188,480,590.7188" style="stroke:#181818;stroke-width:1.0;"/><text fill="#000000" font-family="sans-serif" font-size="13" font-weight="bold" lengthAdjust="spacing" textLength="23" x="480" y="572.6528">4.1</text><text fill="#000000" font-family="sans-serif" font-size="13" lengthAdjust="spacing" textLength="171" x="507" y="572.6528">Extract Authorization Code</text><polygon fill="#FF0000" points="840,615.8516,850,619.8516,840,623.8516,844,619.8516" style="stroke:#FF0000;stroke-width:1.0;"/><line style="stroke:#FF0000;stroke-width:1.0;" x1="473" x2="846" y1="619.8516" y2="619.8516"/><text fill="#000000" font-family="sans-serif" font-size="13" font-weight="bold" lengthAdjust="spacing" textLength="23" x="480" y="614.7856">4.2</text><text fill="#000000" font-family="sans-serif" font-size="13" lengthAdjust="spacing" textLength="277" x="507" y="614.7856">Send Authorization Code + Code Verifier to</text><text fill="#000000" font-family="sans-serif" font-size="13" font-weight="bold" lengthAdjust="spacing" textLength="47" x="788" y="614.7856">/token</text><polygon fill="#181818" points="484,644.9844,474,648.9844,484,652.9844,480,648.9844" style="stroke:#181818;stroke-width:1.0;"/><line style="stroke:#181818;stroke-width:1.0;" x1="478" x2="851" y1="648.9844" y2="648.9844"/><text fill="#000000" font-family="sans-serif" font-size="13" font-weight="bold" lengthAdjust="spacing" textLength="23" x="490" y="643.9185">4.3</text><text fill="#000000" font-family="sans-serif" font-size="13" lengthAdjust="spacing" textLength="227" x="517" y="643.9185">Return Tokens (Access, ID, Refresh)</text><path d="M236,670.9844 L502,670.9844 L502,678.1172 L492,688.1172 L236,688.1172 L236,670.9844 " fill="#EEEEEE" style="stroke:#000000;stroke-width:1.5;"/><rect fill="none" height="130.5313" style="stroke:#000000;stroke-width:1.5;" width="532" x="236" y="670.9844"/><text fill="#000000" font-family="sans-serif" font-size="13" font-weight="bold" lengthAdjust="spacing" textLength="221" x="251" y="684.0513">5. Token storage and redirect</text><line style="stroke:#181818;stroke-width:1.0;" x1="473" x2="515" y1="709.25" y2="709.25"/><line style="stroke:#181818;stroke-width:1.0;" x1="515" x2="515" y1="709.25" y2="722.25"/><line style="stroke:#181818;stroke-width:1.0;" x1="474" x2="515" y1="722.25" y2="722.25"/><polygon fill="#181818" points="484,718.25,474,722.25,484,726.25,480,722.25" style="stroke:#181818;stroke-width:1.0;"/><text fill="#000000" font-family="sans-serif" font-size="13" font-weight="bold" lengthAdjust="spacing" textLength="23" x="480" y="704.1841">5.1</text><text fill="#000000" font-family="sans-serif" font-size="13" lengthAdjust="spacing" textLength="249" x="507" y="704.1841">Tokens stored in secure session/cookie</text><line style="stroke:#181818;stroke-width:1.0;" x1="473" x2="515" y1="751.3828" y2="751.3828"/><line style="stroke:#181818;stroke-width:1.0;" x1="515" x2="515" y1="751.3828" y2="764.3828"/><line style="stroke:#181818;stroke-width:1.0;" x1="474" x2="515" y1="764.3828" y2="764.3828"/><polygon fill="#181818" points="484,760.3828,474,764.3828,484,768.3828,480,764.3828" style="stroke:#181818;stroke-width:1.0;"/><text fill="#000000" font-family="sans-serif" font-size="13" font-weight="bold" lengthAdjust="spacing" textLength="23" x="480" y="746.3169">5.2</text><text fill="#000000" font-family="sans-serif" font-size="13" lengthAdjust="spacing" textLength="204" x="507" y="746.3169">Retrieve user info from ID Token</text><polygon fill="#181818" points="276,789.5156,266,793.5156,276,797.5156,272,793.5156" style="stroke:#181818;stroke-width:1.0;"/><line style="stroke:#181818;stroke-width:1.0;" x1="270" x2="472" y1="793.5156" y2="793.5156"/><text fill="#000000" font-family="sans-serif" font-size="13" font-weight="bold" lengthAdjust="spacing" textLength="23" x="282" y="788.4497">5.3</text><text fill="#000000" font-family="sans-serif" font-size="13" lengthAdjust="spacing" textLength="113" x="309" y="788.4497">Redirected to app</text><path d="M236,815.5156 L456,815.5156 L456,822.6484 L446,832.6484 L236,832.6484 L236,815.5156 " fill="#EEEEEE" style="stroke:#000000;stroke-width:1.5;"/><rect fill="none" height="322.1328" style="stroke:#000000;stroke-width:1.5;" width="1002.5" x="236" y="815.5156"/><text fill="#000000" font-family="sans-serif" font-size="13" font-weight="bold" lengthAdjust="spacing" textLength="175" x="251" y="828.5825">6. Fetching user details</text><polygon fill="#FF0000" points="975.5,849.7813,985.5,853.7813,975.5,857.7813,979.5,853.7813" style="stroke:#FF0000;stroke-width:1.0;"/><line style="stroke:#FF0000;stroke-width:1.0;" x1="473" x2="981.5" y1="853.7813" y2="853.7813"/><text fill="#000000" font-family="sans-serif" font-size="13" font-weight="bold" lengthAdjust="spacing" textLength="23" x="480" y="848.7153">6.1</text><text fill="#000000" font-family="sans-serif" font-size="13" lengthAdjust="spacing" textLength="145" x="507" y="848.7153">Get detailed user info :</text><text fill="#000000" font-family="sans-serif" font-size="13" font-weight="bold" lengthAdjust="spacing" textLength="145" x="660" y="848.7153">/users/&lt;username&gt;</text><line style="stroke:#181818;stroke-width:1.0;" x1="987.5" x2="1029.5" y1="882.9141" y2="882.9141"/><line style="stroke:#181818;stroke-width:1.0;" x1="1029.5" x2="1029.5" y1="882.9141" y2="895.9141"/><line style="stroke:#181818;stroke-width:1.0;" x1="988.5" x2="1029.5" y1="895.9141" y2="895.9141"/><polygon fill="#181818" points="998.5,891.9141,988.5,895.9141,998.5,899.9141,994.5,895.9141" style="stroke:#181818;stroke-width:1.0;"/><text fill="#000000" font-family="sans-serif" font-size="13" font-weight="bold" lengthAdjust="spacing" textLength="23" x="994.5" y="877.8481">6.2</text><text fill="#000000" font-family="sans-serif" font-size="13" lengthAdjust="spacing" textLength="205" x="1021.5" y="877.8481">Validate Access Token (internal)</text><path d="M449.5,910.9141 L513.5,910.9141 L513.5,918.0469 L503.5,928.0469 L449.5,928.0469 L449.5,910.9141 " fill="#EEEEEE" style="stroke:#000000;stroke-width:1.5;"/><rect fill="none" height="148.4688" style="stroke:#000000;stroke-width:1.5;" width="618.5" x="449.5" y="910.9141"/><text fill="#000000" font-family="sans-serif" font-size="13" font-weight="bold" lengthAdjust="spacing" textLength="19" x="464.5" y="923.981">alt</text><text fill="#000000" font-family="sans-serif" font-size="11" font-weight="bold" lengthAdjust="spacing" textLength="81" x="528.5" y="923.1245">[User exists]</text><polygon fill="#181818" points="484,945.1797,474,949.1797,484,953.1797,480,949.1797" style="stroke:#181818;stroke-width:1.0;"/><line style="stroke:#181818;stroke-width:1.0;" x1="478" x2="986.5" y1="949.1797" y2="949.1797"/><text fill="#000000" font-family="sans-serif" font-size="13" font-weight="bold" lengthAdjust="spacing" textLength="51" x="490" y="944.1138">6.3.1.1</text><text fill="#000000" font-family="sans-serif" font-size="13" lengthAdjust="spacing" textLength="120" x="545" y="944.1138">Return user details</text><line style="stroke:#000000;stroke-width:1.0;stroke-dasharray:2.0,2.0;" x1="449.5" x2="1068" y1="958.1797" y2="958.1797"/><text fill="#000000" font-family="sans-serif" font-size="11" font-weight="bold" lengthAdjust="spacing" textLength="134" x="454.5" y="968.3901">[User does not exist]</text><polygon fill="#181818" points="484,989.1172,474,993.1172,484,997.1172,480,993.1172" style="stroke:#181818;stroke-width:1.0;"/><line style="stroke:#181818;stroke-width:1.0;" x1="478" x2="986.5" y1="993.1172" y2="993.1172"/><text fill="#000000" font-family="sans-serif" font-size="13" font-weight="bold" lengthAdjust="spacing" textLength="51" x="490" y="988.0513">6.3.2.1</text><text fill="#000000" font-family="sans-serif" font-size="13" lengthAdjust="spacing" textLength="140" x="545" y="988.0513">Return 404 Not Found</text><polygon fill="#FF0000" points="975.5,1018.25,985.5,1022.25,975.5,1026.25,979.5,1022.25" style="stroke:#FF0000;stroke-width:1.0;"/><line style="stroke:#FF0000;stroke-width:1.0;" x1="473" x2="981.5" y1="1022.25" y2="1022.25"/><text fill="#000000" font-family="sans-serif" font-size="13" font-weight="bold" lengthAdjust="spacing" textLength="51" x="480" y="1017.1841">6.3.2.2</text><text fill="#000000" font-family="sans-serif" font-size="13" lengthAdjust="spacing" textLength="250" x="535" y="1017.1841">Create new user in User Management :</text><text fill="#000000" font-family="sans-serif" font-size="13" font-weight="bold" lengthAdjust="spacing" textLength="45" x="789" y="1017.1841">/users</text><polygon fill="#181818" points="484,1047.3828,474,1051.3828,484,1055.3828,480,1051.3828" style="stroke:#181818;stroke-width:1.0;"/><line style="stroke:#181818;stroke-width:1.0;" x1="478" x2="986.5" y1="1051.3828" y2="1051.3828"/><text fill="#000000" font-family="sans-serif" font-size="13" font-weight="bold" lengthAdjust="spacing" textLength="51" x="490" y="1046.3169">6.3.2.3</text><text fill="#000000" font-family="sans-serif" font-size="13" lengthAdjust="spacing" textLength="173" x="545" y="1046.3169">Return created user details</text><line style="stroke:#181818;stroke-width:1.0;" x1="473" x2="515" y1="1087.5156" y2="1087.5156"/><line style="stroke:#181818;stroke-width:1.0;" x1="515" x2="515" y1="1087.5156" y2="1100.5156"/><line style="stroke:#181818;stroke-width:1.0;" x1="474" x2="515" y1="1100.5156" y2="1100.5156"/><polygon fill="#181818" points="484,1096.5156,474,1100.5156,484,1104.5156,480,1100.5156" style="stroke:#181818;stroke-width:1.0;"/><text fill="#000000" font-family="sans-serif" font-size="13" font-weight="bold" lengthAdjust="spacing" textLength="9" x="480" y="1082.4497">4</text><text fill="#000000" font-family="sans-serif" font-size="13" lengthAdjust="spacing" textLength="266" x="493" y="1082.4497">Store user details in session/local storage</text><polygon fill="#181818" points="276,1125.6484,266,1129.6484,276,1133.6484,272,1129.6484" style="stroke:#181818;stroke-width:1.0;"/><line style="stroke:#181818;stroke-width:1.0;" x1="270" x2="472" y1="1129.6484" y2="1129.6484"/><text fill="#000000" font-family="sans-serif" font-size="13" font-weight="bold" lengthAdjust="spacing" textLength="9" x="282" y="1124.5825">5</text><text fill="#000000" font-family="sans-serif" font-size="13" lengthAdjust="spacing" textLength="171" x="295" y="1124.5825">Show user-specific content</text><!--SRC=[ZLLDRzf04BtxLuoIIw09v8FaW11IHP8AKQgeb5ogAbhM0rwnxBgxwvBqrtTsRGDsJLCk23nlvirxCsCdd4Juh5T2mQFKMpZxcBb46_6REQ4LZ7ICy06U9gE7LXH5TYrKoWpRW65gRJ65gylBA6BSQGDpYoQYfqvmaJBbO3wk_3oPu1kNcgtXR1m_jKw0MPYCgY4-1qoPOYlSe78XPZwD8gKTWiIb0xtC2m5zxj4n8Iqu3VWBpHjOHvGuKx10MEfCnI1KY1namm7NabYUBcI6GqPTKdx1GvilM-6IbtL1hxE91zqGF1nqis70VyKOc35wQobZx64831BdKZ3uCqFhpY44RXF14n0MOiqptm81DzeWn84hnX4IAzzE5AsCpaZ13eoLS899aC678c58HporoZOBKkMgSnM5_u965qEIjmyZAVZQmabmy0GMcQFuF6fSndn2XSOJ3cO-en5BKGYu3nePt8MC4YObgXL6TGxMwTGtK7A_xdXbX47kl0cbmNNOTKczhFdzr63yOqZszoi9skskTwRTXbtuP1GeKizzc2KqeRb8AViFUZUTNAogstNKJOLT8QvdDiiM6-604rUFPj9MM9LDUFbsJVX9Whztw5sglKuDnRqJ-CeJveseeNjrGNCM3w_Eq2usrJ-c_ioFO-FELwQbCCVfDQfsksvE4C1bHi4t7s3fYd2Erfx3-FwS7YqDsgJrhWQtdHpl7nZo5nXnCuMoTV1jimG50Py1_VQ3HPxH-bcYGytHNkkrm0OWDM04NH78_0G8jTImD7f37UGvwv0maANjL8e4OcdwRezt7NX4nnEXLdcbkBXXTU3TiPsPJ_rAkzr1EI3S1s-I_ssx0_-bs0Q71txDfu4xPNXcKiH-utEd2k7F11qiGidMldQ54-qAyTezaYvV67mLrkstuw3KVZGEkzr5ehIOfuWrMdyNyrp7gbyVL6-iqhlimHVAykYlVpMqfc5nyHHkImMXzlOXFKiv3pHiBCj3ilX8azx-XePw3MCuyuDRdOmmnFdqIitfDL6iH-D4XXFfuHSsHKwxo-cIaAdA_MCq_m00]--></g></svg>